<svg width="20" height="20" viewBox="0 0 20 20" fill="none" xmlns="http://www.w3.org/2000/svg">
  <path d="M10 12.5C11.3807 12.5 12.5 11.3807 12.5 10C12.5 8.61929 11.3807 7.5 10 7.5C8.61929 7.5 7.5 8.61929 7.5 10C7.5 11.3807 8.61929 12.5 10 12.5Z" fill="currentColor"/>
  <path fill-rule="evenodd" clip-rule="evenodd" d="M0.664 10.59C0.517 10.207 0.517 9.793 0.664 9.41C2.105 5.61 5.869 3 10 3C14.131 3 17.895 5.61 19.336 9.41C19.483 9.793 19.483 10.207 19.336 10.59C17.895 14.39 14.131 17 10 17C5.869 17 2.105 14.39 0.664 10.59ZM14 10C14 12.2091 12.2091 14 10 14C7.79086 14 6 12.2091 6 10C6 7.79086 7.79086 6 10 6C12.2091 6 14 7.79086 14 10Z" fill="currentColor"/>
</svg>
